<svg xmlns="http://www.w3.org/2000/svg" viewBox="0 0 1400 760">
<defs>
<linearGradient id="bg" x1="0" y1="0" x2="1" y2="1"><stop offset="0%" stop-color="#EAFBFF"/><stop offset="34%" stop-color="#DDF7FF"/><stop offset="68%" stop-color="#F6EFFF"/><stop offset="100%" stop-color="#F7FFFB"/></linearGradient>
<linearGradient id="panel" x1="0" y1="0" x2="1" y2="1"><stop offset="0%" stop-color="#FFFFFF" stop-opacity="0.88"/><stop offset="45%" stop-color="#EAFBFF" stop-opacity="0.82"/><stop offset="100%" stop-color="#F7EEFF" stop-opacity="0.86"/></linearGradient>
<linearGradient id="cyan" x1="0" x2="1"><stop offset="0%" stop-color="#38DFFF"/><stop offset="50%" stop-color="#92F7FF"/><stop offset="100%" stop-color="#C9A8FF"/></linearGradient>
<linearGradient id="green" x1="0" x2="1"><stop offset="0%" stop-color="#00DFA4"/><stop offset="50%" stop-color="#7DFFD8"/><stop offset="100%" stop-color="#B4F8FF"/></linearGradient>
<linearGradient id="blackpath" x1="0" x2="1"><stop offset="0%" stop-color="#FF4D7A"/><stop offset="50%" stop-color="#FF8AA6"/><stop offset="100%" stop-color="#C9A8FF"/></linearGradient>
<filter id="glow" x="-50%" y="-50%" width="200%" height="200%"><feGaussianBlur stdDeviation="5" result="blur"/><feMerge><feMergeNode in="blur"/><feMergeNode in="SourceGraphic"/></feMerge></filter>
<filter id="shadow" x="-20%" y="-20%" width="140%" height="140%"><feDropShadow dx="0" dy="8" stdDeviation="8" flood-color="#7BDFF2" flood-opacity="0.25"/></filter>
<style>
.title{font-family:Arial,Helvetica,sans-serif;font-size:54px;font-weight:900;letter-spacing:1px;fill:#082A3A}.sub{font-family:Arial,Helvetica,sans-serif;font-size:20px;font-weight:800;letter-spacing:4px;fill:#34627A}.label{font-family:Arial,Helvetica,sans-serif;font-size:22px;font-weight:900;fill:#0A3346}.small{font-family:Arial,Helvetica,sans-serif;font-size:16px;font-weight:800;fill:#315C70}.tiny{font-family:Arial,Helvetica,sans-serif;font-size:13px;font-weight:800;fill:#3E7084}.panel{fill:url(#panel);stroke:#75E9FF;stroke-width:2}.box{fill:#FFFFFF;stroke:#7EEBFF;stroke-width:2;opacity:.94}.lineg{stroke:url(#green);stroke-width:8;fill:none;stroke-linecap:round;opacity:.92}.liner{stroke:url(#blackpath);stroke-width:6;fill:none;stroke-linecap:round;opacity:.9}.dash{stroke-dasharray:10 10}.ok{fill:#009F7C}.bad{fill:#D82255}.boldwhite{font-family:Arial,Helvetica,sans-serif;font-size:27px;font-weight:900;fill:#FFFFFF}.center{font-family:Arial,Helvetica,sans-serif;font-size:24px;font-weight:900;fill:#082A3A}
</style>
</defs>
<rect width="1400" height="760" fill="url(#bg)"/>
<path d="M90 80 C260 10 430 150 620 72 C810 -8 950 122 1130 58 C1240 18 1320 44 1370 78" stroke="#B7F4FF" stroke-width="8" fill="none" opacity=".45"/>
<path d="M30 655 C260 590 370 730 560 660 C760 585 910 720 1110 650 C1240 608 1320 620 1370 648" stroke="#E3C7FF" stroke-width="10" fill="none" opacity=".46"/>
<rect x="30" y="30" width="1340" height="700" rx="30" fill="none" stroke="#FFFFFF" stroke-width="4" opacity=".85"/>
<text x="54" y="88" class="title">CONSEQUENCE ADMISSION BEFORE EXECUTION BINDS</text>
<text x="58" y="126" class="sub">THE ELYRIA CONSEQUENCE TWIN</text>
<g transform="translate(52 168)" filter="url(#shadow)">
<rect class="panel" width="222" height="492" rx="18"/>
<text x="28" y="58" class="label">FULL-STACK</text>
<text x="28" y="92" class="label">BUYER-FACING</text>
<text x="28" y="126" class="label">RUNTIME</text>
<text x="28" y="160" class="label">PROOF SURFACE</text>
<text x="28" y="282" class="label" fill="#008C7A">ELYRIA</text>
<text x="28" y="318" class="label" fill="#008C7A">CONSEQUENCE</text>
<text x="28" y="354" class="label" fill="#008C7A">TWIN</text>
<text x="24" y="432" class="tiny">Universal architecture layer</text>
<text x="24" y="456" class="tiny">Bounded public repo claim</text>
</g>
<g transform="translate(330 156)" filter="url(#shadow)">
<g><rect class="box" width="220" height="60" rx="12"/><text x="24" y="39" class="label">AUTHORITY</text></g>
<g transform="translate(0 76)"><rect class="box" width="220" height="60" rx="12"/><text x="24" y="39" class="label">STANDING</text></g>
<g transform="translate(0 152)"><rect class="box" width="220" height="60" rx="12"/><text x="24" y="39" class="label">EVIDENCE</text></g>
<g transform="translate(0 228)"><rect class="box" width="220" height="60" rx="12"/><text x="24" y="39" class="label">CUSTODY</text></g>
<g transform="translate(0 304)"><rect class="box" width="220" height="60" rx="12"/><text x="24" y="39" class="label">REFUSAL</text></g>
<g transform="translate(0 380)"><rect class="box" width="220" height="60" rx="12"/><text x="24" y="39" class="label">RECEIPT</text></g>
<g transform="translate(0 456)"><rect class="box" width="220" height="60" rx="12"/><text x="24" y="39" class="label">REPLAY</text></g>
</g>
<g filter="url(#glow)"><path class="lineg" d="M550 186 C620 205 682 270 742 348"/><path class="lineg" d="M550 262 C630 268 688 312 742 348"/><path class="lineg" d="M550 338 C630 340 688 346 742 348"/><path class="lineg" d="M550 414 C630 402 688 376 742 348"/><path class="lineg" d="M550 490 C630 462 688 402 742 348"/><path class="lineg" d="M550 566 C630 518 688 430 742 348"/><path class="lineg" d="M550 642 C630 570 688 450 742 348"/></g>
<g transform="translate(660 284)" filter="url(#shadow)"><rect width="220" height="128" rx="20" fill="#FFFFFF" stroke="#FF6F95" stroke-width="3"/><text x="32" y="56" class="label bad">PROPOSED</text><text x="32" y="90" class="label bad">MOVEMENT</text></g>
<g transform="translate(650 462)" filter="url(#shadow)"><rect class="panel" width="292" height="82" rx="16"/><text x="28" y="34" class="tiny">ELYRIA CONSEQUENCE TWIN</text><text x="28" y="64" class="center">BINDING PROOF SURFACE</text></g>
<g transform="translate(905 145)" filter="url(#shadow)"><rect width="250" height="510" rx="26" fill="#FFFFFF" stroke="#8AF0FF" stroke-width="4" opacity=".95"/><text x="58" y="218" class="small">AUTHORITY</text><text x="58" y="252" class="small">EVIDENCE</text><text x="58" y="286" class="small">CUSTODY</text><text x="58" y="320" class="small">REPLAY</text><text x="58" y="354" class="small">VERDICT</text></g>
<path class="liner dash" d="M762 320 C696 220 632 166 576 122" filter="url(#glow)"/>
<text x="592" y="118" class="label bad">THE BLACK PATH</text>
<g filter="url(#glow)"><path class="lineg" d="M1155 350 C1218 315 1264 270 1330 240"/><path class="lineg" d="M1155 350 C1222 352 1270 352 1332 352"/><path class="lineg" d="M1155 350 C1218 390 1264 438 1330 486"/></g>
<text x="1190" y="312" class="label ok">ADMITTED</text><text x="1190" y="346" class="label ok">EXECUTED</text><text x="1190" y="380" class="label ok">REALITY</text>
<g transform="translate(1160 530)" filter="url(#shadow)"><rect class="panel" width="190" height="116" rx="14"/><text x="22" y="36" class="small">CONSEQUENCE</text><text x="22" y="62" class="small">EXPOSURE GRAPH</text><path d="M25 96 C70 28 126 30 165 96" stroke="#FF4D7A" stroke-width="5" fill="none"/></g>
<text x="54" y="710" class="small">Full-stack runtime proof surface  •  Evidence-gated admission  •  Signed receipt  •  Replay verification  •  Black-path exposure</text>
</svg>
